<svg width="131" height="42" viewBox="0 0 131 42" fill="none" xmlns="http://www.w3.org/2000/svg">
<path d="M0 41.25V0H8.15625V16.5234L12 0H20.2969L15.6797 18.8906L21.2578 41.25H12.7031L8.20312 21.2812V41.25H0ZM22.5469 41.25V6.09375H31.0781V10.0078C31.4844 8.64844 32.2031 7.58594 33.2344 6.82031C34.2656 6.05469 35.5625 5.67188 37.125 5.67188V12.6797C36.4375 12.6797 35.6172 12.7578 34.6641 12.9141C33.7109 13.0547 32.875 13.2578 32.1562 13.5234C31.4375 13.7734 31.0781 14.0547 31.0781 14.3672V41.25H22.5469ZM45.5859 41.625C43.6328 41.625 42.1406 41.1719 41.1094 40.2656C40.0938 39.3594 39.3984 38.1172 39.0234 36.5391C38.6484 34.9609 38.4609 33.1719 38.4609 31.1719C38.4609 29.0312 38.6719 27.2812 39.0938 25.9219C39.5156 24.5469 40.2344 23.4219 41.25 22.5469C42.2812 21.6719 43.6953 20.9297 45.4922 20.3203L50.6953 18.5391V14.9297C50.6953 13.0391 50.0781 12.0938 48.8438 12.0938C47.7188 12.0938 47.1562 12.8594 47.1562 14.3906V16.5H39C38.9844 16.375 38.9766 16.2188 38.9766 16.0312C38.9766 15.8281 38.9766 15.6016 38.9766 15.3516C38.9766 11.8516 39.7969 9.375 41.4375 7.92188C43.0938 6.45312 45.7109 5.71875 49.2891 5.71875C51.1641 5.71875 52.8438 6.05469 54.3281 6.72656C55.8125 7.38281 56.9844 8.35938 57.8438 9.65625C58.7188 10.9531 59.1562 12.5547 59.1562 14.4609V41.25H50.8125V37.0781C50.4062 38.5469 49.7344 39.6719 48.7969 40.4531C47.8594 41.2344 46.7891 41.625 45.5859 41.625ZM48.8906 35.1094C49.5781 35.1094 50.0469 34.8203 50.2969 34.2422C50.5469 33.6641 50.6719 33.0391 50.6719 32.3672V22.5703C49.5156 23.0391 48.6172 23.6328 47.9766 24.3516C47.3359 25.0547 47.0156 26.0938 47.0156 27.4688V31.9922C47.0156 34.0703 47.6406 35.1094 48.8906 35.1094ZM62.3906 41.25V0H70.6875V18.2109L74.7188 6.09375H83.4141L78.1406 21.375L84.8438 41.25H75.9141L70.6875 24.6797V41.25H62.3906ZM95.8125 41.625C93.3125 41.625 91.3203 41.1562 89.8359 40.2188C88.3516 39.2812 87.2891 37.9297 86.6484 36.1641C86.0078 34.3984 85.6875 32.2734 85.6875 29.7891V15.6562C85.6875 12.3906 86.625 9.92187 88.5 8.25C90.375 6.5625 92.9531 5.71875 96.2344 5.71875C102.984 5.71875 106.359 9.03125 106.359 15.6562V18.2109C106.359 21.3047 106.328 23.3828 106.266 24.4453H94.0781V31.2422C94.0781 31.8672 94.1172 32.4844 94.1953 33.0938C94.2734 33.6875 94.4453 34.1797 94.7109 34.5703C94.9922 34.9609 95.4375 35.1562 96.0469 35.1562C96.9219 35.1562 97.4688 34.7812 97.6875 34.0312C97.9062 33.2656 98.0156 32.2734 98.0156 31.0547V27.6797H106.359V29.6719C106.359 32.2969 106.031 34.5 105.375 36.2812C104.734 38.0469 103.641 39.3828 102.094 40.2891C100.562 41.1797 98.4688 41.625 95.8125 41.625ZM94.0312 20.2734H98.0156V15.5391C98.0156 14.2734 97.8594 13.3672 97.5469 12.8203C97.2344 12.2578 96.7656 11.9766 96.1406 11.9766C95.4688 11.9766 94.9453 12.2422 94.5703 12.7734C94.2109 13.3047 94.0312 14.2266 94.0312 15.5391V20.2734ZM109.406 41.25V6.09375H117.797V10.5703C118.109 9.22656 118.688 8.08594 119.531 7.14844C120.391 6.19531 121.578 5.71875 123.094 5.71875C125.531 5.71875 127.297 6.46875 128.391 7.96875C129.5 9.46875 130.055 11.5234 130.055 14.1328V41.25H121.781V15C121.781 14.3125 121.641 13.6797 121.359 13.1016C121.078 12.5078 120.594 12.2109 119.906 12.2109C119.266 12.2109 118.789 12.4375 118.477 12.8906C118.18 13.3281 117.992 13.8828 117.914 14.5547C117.836 15.2109 117.797 15.8672 117.797 16.5234V41.25H109.406Z" fill="#2F2F2F"/>
</svg>
