<svg width="138" height="35" viewBox="0 0 138 35" fill="none" xmlns="http://www.w3.org/2000/svg">
<path d="M8.97607 26.352C12.3041 27.056 16.5601 27.664 21.7441 28.176L19.6801 34.848C15.2961 34.464 12.1441 34.096 10.2241 33.744C8.33607 33.392 6.84807 33.104 5.76007 32.88L7.40886e-05 27.648C3.90407 19.52 9.64807 10.304 17.2321 2.09808e-05L22.1761 4.99202C17.9841 10.752 13.5841 17.872 8.97607 26.352ZM40.5008 30.048C37.9728 32.032 35.0608 33.472 31.7648 34.368L25.8128 28.848C25.8128 26.32 26.1968 23.84 26.9648 21.408C27.7328 18.976 28.8688 16.784 30.3728 14.832C31.8768 12.88 33.7328 11.264 35.9408 9.98402C38.1808 8.67202 40.7568 7.88802 43.6688 7.63202L46.8368 12.48C47.2208 11.872 48.0368 10.816 49.2848 9.31202L53.9888 13.344C50.8208 17.472 48.1968 21.888 46.1168 26.592L45.9728 26.688C47.8288 26.208 50.0048 25.392 52.5008 24.24C54.9968 23.056 56.5808 22.288 57.2528 21.936L58.3088 26.784C56.4208 28.16 53.2848 29.936 48.9008 32.112C47.1728 32.976 45.6048 33.664 44.1968 34.176L40.5008 30.048ZM32.5328 27.456C35.9568 26.528 39.0768 24.256 41.8928 20.64C42.7248 18.816 43.3488 16.544 43.7648 13.824C40.4688 14.144 37.7648 15.6 35.6528 18.192C33.5728 20.752 32.5328 23.84 32.5328 27.456ZM62.3029 28.128C70.1429 27.104 76.959 25.04 82.7509 21.936L83.807 26.784C78.879 29.888 73.4069 32.144 67.3909 33.552C65.3749 34 63.3909 34.272 61.4389 34.368L55.4869 28.848C55.4869 26.576 55.6309 24.816 55.9189 23.568C57.1669 18.288 60.2229 14.032 65.0869 10.8C67.2629 9.36002 69.471 8.28802 71.711 7.58402L79.391 13.296C79.231 14.032 78.783 15.2 78.047 16.8C76.8309 19.488 75.8709 21.328 75.167 22.32L69.1189 18.48C70.847 16.304 71.935 14.48 72.383 13.008C69.3109 14.32 66.8149 16.432 64.8949 19.344C63.1669 21.968 62.3029 24.896 62.3029 28.128ZM92.1709 23.808C90.6669 23.808 89.4829 23.696 88.6189 23.472C88.1069 24.72 87.7869 26.272 87.6589 28.128C93.1629 27.808 98.4749 26.576 103.595 24.432C105.323 23.728 106.987 22.896 108.587 21.936L109.595 26.784C106.619 28.672 103.099 30.336 99.0349 31.776C94.7149 33.312 90.6349 34.176 86.7949 34.368L80.8429 28.848C80.8429 24.432 82.0429 20.4 84.4429 16.752C86.1709 14.224 88.1229 12.224 90.2989 10.752C92.5069 9.28002 94.6189 8.22402 96.6349 7.58402L104.747 14.304C103.947 17.632 102.427 20.048 100.187 21.552C97.9469 23.056 95.2749 23.808 92.1709 23.808ZM90.6349 19.152C92.4909 19.152 94.1069 18.64 95.4829 17.616C97.083 16.4 97.883 14.704 97.883 12.528C94.6509 14.288 92.2349 16.496 90.6349 19.152ZM114.831 34.752C112.527 33.216 110.511 31.76 108.783 30.384C107.215 29.008 105.503 27.36 103.647 25.44L108.591 21.936C110.831 24.272 112.479 25.84 113.535 26.64C114.591 27.408 115.535 28.064 116.367 28.608C117.263 28.512 118.719 28.208 120.735 27.696L112.767 20.16C112.031 19.392 111.455 18.704 111.039 18.096C112.255 15.92 114.351 13.664 117.327 11.328C120.111 9.15202 122.767 7.69602 125.295 6.96002L132.975 13.152C132.431 15.328 131.151 18.208 129.135 21.792L123.999 17.952C124.671 16.96 125.263 15.888 125.775 14.736C126.287 13.584 126.591 12.816 126.687 12.432C124.895 13.104 123.055 14.32 121.167 16.08C120.495 16.72 119.887 17.376 119.343 18.048C119.951 18.976 120.879 19.952 122.127 20.976C124.239 22.8 126.015 24.368 127.455 25.68C131.007 24.464 134.015 23.216 136.479 21.936L137.487 26.784C134.927 28.608 131.327 30.304 126.687 31.872C122.399 33.312 118.447 34.272 114.831 34.752Z" fill="#2F2F2F"/>
</svg>
