<svg width="108" height="29" viewBox="0 0 108 29" fill="none" xmlns="http://www.w3.org/2000/svg">
<path d="M8.27998 28.28V3.12003H13.44V0.280027H-1.95205e-05V3.12003H5.15998V28.28H8.27998ZM15.6112 0.280027V28.28H18.7312V16.32H20.9312C23.5312 16.32 25.0112 17.32 25.0112 20.48V24.88C25.0112 26.76 25.1712 27.48 25.5312 28.28H28.6912C28.1712 27.32 28.1312 26.16 28.1312 24.92V20.56C28.1312 17.56 27.1712 15.48 24.6112 14.72C27.0112 13.96 28.0912 12.04 28.0912 8.96003V6.68003C28.0912 2.52003 26.2512 0.280027 21.8512 0.280027H15.6112ZM18.7312 13.48V3.12003H21.7712C24.0912 3.12003 25.0112 4.44003 25.0112 6.96003V9.64003C25.0112 12.68 23.5312 13.48 21.0512 13.48H18.7312ZM34.4734 12.68V3.12003H42.8734V0.280027H31.3534V28.28H42.8734V25.44H34.4734V15.48H41.3134V12.68H34.4734ZM45.6475 15.68H53.2875V12.88H45.6475V15.68ZM67.1134 28.28H70.3134L62.9934 13.04L70.0734 0.280027H66.9134L59.4734 13.8V0.280027H56.3534V28.28H59.4734V18.88L61.1134 16.12L67.1134 28.28ZM72.7206 0.280027V28.28H75.8406V0.280027H72.7206ZM81.8087 5.64003L88.9687 28.28H92.2087V0.280027H89.4487V20.52L82.9687 0.280027H79.0087V28.28H81.8087V5.64003ZM101.456 2.86102e-05C97.1759 2.86102e-05 95.1759 2.80003 95.1759 7.04003V21.52C95.1759 25.76 97.1759 28.56 101.456 28.56C105.776 28.56 107.776 25.76 107.776 21.52V13.28H101.936V16.08H104.816V21.68C104.816 24.2 103.816 25.72 101.536 25.72C99.2959 25.72 98.2559 24.2 98.2559 21.68V6.88003C98.2559 4.36003 99.2959 2.84003 101.536 2.84003C103.816 2.84003 104.816 4.36003 104.816 6.88003V9.44003H107.776V7.04003C107.776 2.80003 105.776 2.86102e-05 101.456 2.86102e-05Z" fill="#2F2F2F"/>
</svg>
